<?xml version="1.0" encoding="UTF-8" standalone="no"?>
<!-- Created with Inkscape (http://www.inkscape.org/) -->

<svg
   width="173.81877mm"
   height="133.02179mm"
   viewBox="0 0 173.81877 133.02179"
   version="1.1"
   id="svg1"
   inkscape:version="1.3.1 (91b66b0783, 2023-11-16)"
   sodipodi:docname="drawing.svg"
   xmlns:inkscape="http://www.inkscape.org/namespaces/inkscape"
   xmlns:sodipodi="http://sodipodi.sourceforge.net/DTD/sodipodi-0.dtd"
   xmlns="http://www.w3.org/2000/svg"
   xmlns:svg="http://www.w3.org/2000/svg">
  <sodipodi:namedview
     id="namedview1"
     pagecolor="#505050"
     bordercolor="#eeeeee"
     borderopacity="1"
     inkscape:showpageshadow="0"
     inkscape:pageopacity="0"
     inkscape:pagecheckerboard="0"
     inkscape:deskcolor="#505050"
     inkscape:document-units="mm"
     inkscape:zoom="1"
     inkscape:cx="314.5"
     inkscape:cy="293.5"
     inkscape:window-width="2560"
     inkscape:window-height="1371"
     inkscape:window-x="0"
     inkscape:window-y="32"
     inkscape:window-maximized="1"
     inkscape:current-layer="layer1" />
  <defs
     id="defs1">
    <style
       class="style-fonts"
       id="style1">
      @font-face {
        font-family: &quot;Virgil&quot;;
        src: url(&quot;https://excalidraw.com/Virgil.woff2&quot;);
      }
      @font-face {
        font-family: &quot;Cascadia&quot;;
        src: url(&quot;https://excalidraw.com/Cascadia.woff2&quot;);
      }
      @font-face {
        font-family: &quot;Assistant&quot;;
        src: url(&quot;https://excalidraw.com/Assistant-Regular.woff2&quot;);
      }
    </style>
  </defs>
  <g
     inkscape:label="Layer 1"
     inkscape:groupmode="layer"
     id="layer1"
     transform="translate(-21.647064,-70.870168)">
    <!-- svg-source:excalidraw -->
    <rect
       x="21.647064"
       y="71.140724"
       width="173.81877"
       height="132.75124"
       fill="#ffffff"
       id="rect1"
       style="stroke-width:0.270169" />
    <g
       stroke-linecap="round"
       transform="matrix(0.26458333,0,0,0.26458333,50.661754,100.93653)"
       id="g1">
      <path
         d="M 32,0 C 175.35,-1.17 319.93,0.01 478,0 M 32,0 c 128.74,0.26 257.71,0.85 446,0 m 0,0 c 22.93,-1.7 33.86,12.05 32,32 M 478,0 c 19.44,-1.72 32.54,10.32 32,32 m 0,0 c -1.27,78.37 1.21,155.41 0,315 m 0,-315 c 1.35,99.45 1.27,198.36 0,315 m 0,0 c -1.9,20.94 -9.71,30.76 -32,32 m 32,-32 c -0.49,21.89 -8.45,30.04 -32,32 m 0,0 c -92.56,-0.97 -185.84,-1 -446,0 m 446,0 c -90.21,-0.56 -181.59,-0.69 -446,0 m 0,0 C 8.83,377.32 1.59,368 0,347 m 32,32 C 11.81,379.15 0.67,369.53 0,347 m 0,0 C 1.73,258.64 0.79,169.36 0,32 M 0,347 C -0.76,236.16 -0.36,124.72 0,32 m 0,0 C -1.95,9.8 11.75,1.32 32,0 M 0,32 C -1.29,9.81 12.4,-1.74 32,0"
         stroke="#000000"
         stroke-width="1"
         fill="none"
         id="path1" />
    </g>
    <g
       stroke-linecap="round"
       id="g3"
       transform="matrix(0.26458333,0,0,0.26458333,21.647064,71.140723)">
      <g
         transform="translate(364.62513,113.5)"
         id="g2">
        <path
           d="m -1.1,-1.01 c 0.27,62.95 1.77,314.8 2.06,377.81 M 0.52,1.08 C 0.77,64.29 0.57,315.34 0.51,378.24"
           stroke="#000000"
           stroke-width="1"
           fill="none"
           id="path2" />
      </g>
    </g>
    <mask
       id="mask3" />
    <g
       stroke-linecap="round"
       id="g5"
       transform="matrix(0.26458333,0,0,0.26458333,21.647064,71.140723)">
      <g
         transform="translate(109.55335,301.63144)"
         id="g4">
        <path
           d="m 0.76,0.57 c 85.07,0.16 424.6,-0.54 509.76,-0.8 M -0.3,-0.18 c 84.87,0.45 424.34,1.37 509.61,1.37"
           stroke="#000000"
           stroke-width="1"
           fill="none"
           id="path3" />
      </g>
    </g>
    <mask
       id="mask5" />
    <g
       transform="matrix(0.26458333,0,0,0.26458333,78.678888,115.19385)"
       id="g6">
      <text
         x="0"
         y="0"
         font-family="Virgil, 'Segoe UI Emoji'"
         font-size="51.4843px"
         fill="#000000"
         text-anchor="start"
         style="white-space:pre;-inkscape-font-specification:'Architects Daughter';font-family:'Architects Daughter';font-weight:normal;font-style:normal;font-stretch:normal;font-variant:normal"
         direction="ltr"
         dominant-baseline="text-before-edge"
         id="text5">a</text>
    </g>
    <g
       transform="matrix(0.26458333,0,0,0.26458333,148.21932,115.676)"
       id="g7">
      <text
         x="0"
         y="0"
         font-family="Virgil, 'Segoe UI Emoji'"
         font-size="51.4843px"
         fill="#000000"
         text-anchor="start"
         style="white-space:pre;-inkscape-font-specification:'Architects Daughter';font-family:'Architects Daughter';font-weight:normal;font-style:normal;font-stretch:normal;font-variant:normal"
         direction="ltr"
         dominant-baseline="text-before-edge"
         id="text6">b</text>
    </g>
    <g
       transform="matrix(0.26458333,0,0,0.26458333,79.163078,169.651)"
       id="g8">
      <text
         x="0"
         y="0"
         font-family="Virgil, 'Segoe UI Emoji'"
         font-size="51.4843px"
         fill="#000000"
         text-anchor="start"
         style="white-space:pre;-inkscape-font-specification:'Architects Daughter';font-family:'Architects Daughter';font-weight:normal;font-style:normal;font-stretch:normal;font-variant:normal"
         direction="ltr"
         dominant-baseline="text-before-edge"
         id="text7">c</text>
    </g>
    <g
       transform="matrix(0.26458333,0,0,0.26458333,147.69151,170.44475)"
       id="g9">
      <text
         x="0"
         y="0"
         font-family="Virgil, 'Segoe UI Emoji'"
         font-size="51.4843px"
         fill="#000000"
         text-anchor="start"
         style="white-space:pre;-inkscape-font-specification:'Architects Daughter';font-family:'Architects Daughter';font-weight:normal;font-style:normal;font-stretch:normal;font-variant:normal"
         direction="ltr"
         dominant-baseline="text-before-edge"
         id="text8">d</text>
    </g>
    <g
       transform="matrix(0.26458333,0,0,0.26458333,70.609097,73.786556)"
       id="g10">
      <text
         x="0"
         y="0"
         font-family="Virgil, 'Segoe UI Emoji'"
         font-size="30.4px"
         fill="#000000"
         text-anchor="start"
         style="font-size:37.3333px;white-space:pre"
         direction="ltr"
         dominant-baseline="text-before-edge"
         id="text9"><tspan
           style="font-style:normal;font-variant:normal;font-weight:normal;font-stretch:normal;font-size:37.3333px;font-family:'Architects Daughter';-inkscape-font-specification:'Architects Daughter'"
           id="tspan1">Objects (i,j) in partition</tspan></text>
    </g>
    <g
       transform="matrix(8.637628e-4,-0.26458192,0.26458192,8.637628e-4,24.292898,195.71962)"
       id="g11">
      <text
         x="0"
         y="0"
         font-family="Virgil, 'Segoe UI Emoji'"
         font-size="30.4px"
         fill="#000000"
         text-anchor="start"
         style="white-space:pre"
         direction="ltr"
         dominant-baseline="text-before-edge"
         id="text10"><tspan
   style="font-style:normal;font-variant:normal;font-weight:normal;font-stretch:normal;font-size:37.3333px;font-family:'Architects Daughter';-inkscape-font-specification:'Architects Daughter'"
   id="tspan2">Objects (i,j) in partitio</tspan>n 2</text>
    </g>
    <g
       transform="matrix(0.26458333,0,0,0.26458333,74.804433,90.58484)"
       id="g12">
      <text
         x="0"
         y="0"
         font-family="Virgil, 'Segoe UI Emoji'"
         font-size="20px"
         fill="#000000"
         text-anchor="start"
         style="white-space:pre;-inkscape-font-specification:'Architects Daughter';font-family:'Architects Daughter';font-weight:normal;font-style:normal;font-stretch:normal;font-variant:normal;font-size:24.0000003px"
         direction="ltr"
         dominant-baseline="text-before-edge"
         id="text11">same</text>
    </g>
    <g
       transform="matrix(0.26458333,0,0,0.26458333,141.3736,89.79109)"
       id="g13">
      <text
         x="0"
         y="0"
         font-family="Virgil, 'Segoe UI Emoji'"
         font-size="20px"
         fill="#000000"
         text-anchor="start"
         style="white-space:pre;-inkscape-font-specification:'Architects Daughter';font-family:'Architects Daughter';font-weight:normal;font-style:normal;font-stretch:normal;font-variant:normal;font-size:24.0000003px"
         direction="ltr"
         dominant-baseline="text-before-edge"
         id="text12">different</text>
    </g>
    <g
       transform="matrix(0,-0.26458333,0.26458333,0,40.144016,128.65837)"
       id="g14">
      <text
         x="0"
         y="0"
         font-family="Virgil, 'Segoe UI Emoji'"
         font-size="20px"
         fill="#000000"
         text-anchor="start"
         style="white-space:pre;-inkscape-font-specification:'Architects Daughter';font-family:'Architects Daughter';font-weight:normal;font-style:normal;font-stretch:normal;font-variant:normal;font-size:24.0000003px"
         direction="ltr"
         dominant-baseline="text-before-edge"
         id="text13">same</text>
    </g>
    <g
       transform="matrix(0,-0.26458333,0.26458333,0,40.540891,182.83446)"
       id="g15">
      <text
         x="0"
         y="0"
         font-family="Virgil, 'Segoe UI Emoji'"
         font-size="20px"
         fill="#000000"
         text-anchor="start"
         style="white-space:pre;-inkscape-font-specification:'Architects Daughter';font-family:'Architects Daughter';font-weight:normal;font-style:normal;font-stretch:normal;font-variant:normal;font-size:24.0000003px"
         direction="ltr"
         dominant-baseline="text-before-edge"
         id="text14">different</text>
    </g>
  </g>
</svg>
