<?xml version="1.0" encoding="UTF-8" standalone="no"?>
<!-- Created with Inkscape (http://www.inkscape.org/) -->

<svg
   width="145.38853mm"
   height="124.61875mm"
   viewBox="0 0 145.38853 124.61875"
   version="1.1"
   id="svg1"
   inkscape:version="1.3.1 (91b66b0783, 2023-11-16)"
   sodipodi:docname="complete_linkage.svg"
   xmlns:inkscape="http://www.inkscape.org/namespaces/inkscape"
   xmlns:sodipodi="http://sodipodi.sourceforge.net/DTD/sodipodi-0.dtd"
   xmlns="http://www.w3.org/2000/svg"
   xmlns:svg="http://www.w3.org/2000/svg">
  <sodipodi:namedview
     id="namedview1"
     pagecolor="#505050"
     bordercolor="#eeeeee"
     borderopacity="1"
     inkscape:showpageshadow="0"
     inkscape:pageopacity="0"
     inkscape:pagecheckerboard="0"
     inkscape:deskcolor="#505050"
     inkscape:document-units="mm"
     inkscape:zoom="1.4752918"
     inkscape:cx="360.94554"
     inkscape:cy="251.81459"
     inkscape:window-width="2560"
     inkscape:window-height="1371"
     inkscape:window-x="0"
     inkscape:window-y="32"
     inkscape:window-maximized="1"
     inkscape:current-layer="layer1" />
  <defs
     id="defs1">
    <style
       class="style-fonts"
       id="style1">
      @font-face {
        font-family: &quot;Virgil&quot;;
        src: url(&quot;https://excalidraw.com/Virgil.woff2&quot;);
      }
      @font-face {
        font-family: &quot;Cascadia&quot;;
        src: url(&quot;https://excalidraw.com/Cascadia.woff2&quot;);
      }
      @font-face {
        font-family: &quot;Assistant&quot;;
        src: url(&quot;https://excalidraw.com/Assistant-Regular.woff2&quot;);
      }
    </style>
  </defs>
  <g
     inkscape:label="Layer 1"
     inkscape:groupmode="layer"
     id="layer1"
     transform="translate(-33.07468,-51.326691)">
    <!-- svg-source:excalidraw -->
    <rect
       x="33.07468"
       y="51.326691"
       width="145.38853"
       height="124.61875"
       fill="#ffffff"
       id="rect1"
       style="stroke-width:0.264583" />
    <g
       stroke-linecap="round"
       transform="matrix(0.26458333,0,0,0.26458333,35.720515,135.59648)"
       id="g2">
      <path
         d="m 10.34,3.68 c 0,0 0,0 0,0 m 0,0 c 0,0 0,0 0,0 M 1.55,19.89 C 6.28,15.21 8.22,10.68 17.29,1.78 M 1.55,19.89 C 6.18,14.64 9.95,10.17 17.29,1.78 M 1.94,25.54 C 10.28,17.34 16.28,8.62 23.59,0.63 M 1.94,25.54 C 9.24,17.16 16.34,8.57 23.59,0.63 M 2.34,31.18 C 7.66,25.11 14.21,17.73 28.58,0.99 M 2.34,31.18 C 10.41,22.42 17.71,14.34 28.58,0.99 M 4.7,34.56 C 11.46,28.51 16.05,20.61 31.6,3.62 M 4.7,34.56 C 10.12,28.61 15.82,21.44 31.6,3.62 M 7.72,37.18 C 14.06,29.12 20.55,21.06 35.27,5.49 M 7.72,37.18 C 14.93,29.34 21.84,20.48 35.27,5.49 M 10.08,40.56 C 17.06,31.84 24.42,24.86 38.95,7.36 M 10.08,40.56 C 19.25,29.92 28.37,18.79 38.95,7.36 M 13.75,42.43 C 21.34,34.45 30.04,25.26 40.65,11.49 M 13.75,42.43 C 23.27,31.11 33.04,21.05 40.65,11.49 M 18.09,43.55 c 5.74,-7.46 12.4,-15 24.27,-27.93 M 18.09,43.55 C 23.74,36.96 30.34,29.97 42.36,15.62 M 22.42,44.66 c 6.95,-6.52 11.4,-13.83 21.65,-24.9 m -21.65,24.9 c 5.91,-6.3 10.43,-12.52 21.65,-24.9 M 27.4,45.02 C 34.73,37.5 40.53,28.9 44.46,25.4 M 27.4,45.02 C 33.95,37.76 39.15,31.25 44.46,25.4 m -6.17,13.19 c 0.82,-0.91 1.47,-1.7 3.29,-3.77 m -3.29,3.77 c 0.97,-1.04 1.87,-2.35 3.29,-3.77"
         stroke="#fa5252"
         stroke-width="0.5"
         fill="none"
         id="path1" />
      <path
         d="m 26.24,-0.04 c 4.49,0.46 9.74,4.06 12.81,7.76 3.07,3.71 5.45,9.59 5.62,14.45 0.18,4.87 -1.59,10.99 -4.56,14.74 -2.97,3.74 -8.55,6.86 -13.28,7.72 C 22.11,45.49 15.91,44.35 11.75,42.08 7.59,39.8 3.66,35.44 1.88,30.96 0.11,26.48 -0.32,19.76 1.09,15.21 2.51,10.65 6.13,6.1 10.39,3.63 14.64,1.16 23.83,0.77 26.63,0.39 29.43,0.02 27.35,0.93 27.2,1.37 M 23.04,0.58 c 4.59,-0.28 11.11,1.83 14.63,5.03 3.52,3.2 5.87,9.39 6.48,14.16 0.61,4.77 -0.3,10.51 -2.82,14.47 -2.51,3.96 -7.68,7.85 -12.29,9.29 C 24.44,44.96 18.17,44.68 13.7,42.84 9.22,41 4.41,36.66 2.2,32.49 -0.01,28.32 -0.66,22.44 0.41,17.84 1.49,13.24 4.88,7.85 8.66,4.89 12.44,1.92 20.75,0.64 23.07,0.03 25.4,-0.59 22.71,0.92 22.61,1.21"
         stroke="#000000"
         stroke-width="1"
         fill="none"
         id="path2" />
    </g>
    <g
       stroke-linecap="round"
       transform="matrix(0.26458333,0,0,0.26458333,98.426768,125.54231)"
       id="g4">
      <path
         d="m 6.67,5.8 c 0,0 0,0 0,0 m 0,0 c 0,0 0,0 0,0 M 0.5,18.99 c 2.52,-3.14 6.95,-7 13.78,-15.85 M 0.5,18.99 C 4.8,14.8 7.84,10.21 14.28,3.14 M 1.56,23.88 C 7.57,17.83 10.84,12.03 21.89,0.48 M 1.56,23.88 C 9.8,14.85 17.32,5.23 21.89,0.48 M 2.61,28.77 C 11.74,18.72 18.22,10.2 25.57,2.35 M 2.61,28.77 C 7.96,22.76 12.91,17.01 25.57,2.35 M 3.66,33.65 C 11.4,25.37 18.6,14.83 29.9,3.47 M 3.66,33.65 C 10.4,26.04 17.02,18.42 29.9,3.47 M 6.02,37.03 C 13.31,28.36 21.52,19.72 34.23,4.58 M 6.02,37.03 C 15.18,26.6 24.04,15.71 34.23,4.58 M 9.04,39.66 C 21.05,26.04 31.91,14.23 37.25,7.2 M 9.04,39.66 C 15.78,31.81 23.08,23.37 37.25,7.2 M 12.71,41.53 c 6.32,-8.14 13.74,-17.29 26.9,-30.95 m -26.9,30.95 c 7.32,-8.22 14.22,-15.8 26.9,-30.95 M 15.73,44.15 C 23.11,35.7 29.78,28.49 41.97,13.96 M 15.73,44.15 C 21.87,37.95 27.28,30.77 41.97,13.96 M 21.38,43.76 C 27.57,37.2 33.09,29.41 44.34,17.34 M 21.38,43.76 C 27.48,36.61 34.37,28.97 44.34,17.34 M 27.02,43.36 C 33.82,35.47 40.8,28.22 44.73,22.98 M 27.02,43.36 C 32.86,36.72 38.07,31.37 44.73,22.98 m -6.82,13.95 c 1.74,-1.39 2.89,-3.51 5.9,-6.79 m -5.9,6.79 c 2.08,-2.37 3.97,-4.51 5.9,-6.79"
         stroke="#fa5252"
         stroke-width="0.5"
         fill="none"
         id="path3" />
      <path
         d="m 21.31,0.39 c 4.41,-0.49 10.28,1.51 14.11,4.37 3.84,2.86 7.63,8.23 8.92,12.78 1.29,4.56 0.94,10.38 -1.18,14.56 -2.13,4.18 -7.09,8.53 -11.56,10.52 -4.48,2 -10.63,2.63 -15.28,1.44 C 11.67,42.86 6.39,39.5 3.69,35.45 1,31.39 -0.34,24.68 0.15,19.74 0.65,14.79 3.17,9.14 6.67,5.8 c 3.5,-3.34 11.94,-5.13 14.47,-6.1 2.52,-0.97 0.67,-0.13 0.7,0.27 m 3.07,-0.25 c 4.6,0 9.89,2.74 13.13,6.29 3.25,3.54 5.82,10.23 6.34,15 0.51,4.78 -0.71,9.79 -3.27,13.63 -2.56,3.84 -7.43,8.02 -12.07,9.43 C 24.4,45.48 17.64,45.14 13.26,43.11 8.88,41.08 4.78,36.38 2.75,31.91 0.71,27.44 -0.03,20.91 1.05,16.27 2.14,11.62 5.39,6.78 9.25,4.05 13.1,1.31 21.68,0.35 24.17,-0.12 26.65,-0.59 24.06,0.72 24.15,1.21"
         stroke="#000000"
         stroke-width="1"
         fill="none"
         id="path4" />
    </g>
    <g
       stroke-linecap="round"
       transform="matrix(0.26458333,0,0,0.26458333,119.72573,161.39336)"
       id="g6">
      <path
         d="m 11.1,3.03 c 0,0 0,0 0,0 m 0,0 c 0,0 0,0 0,0 M 1.66,19.99 C 4.68,15.7 8.22,10.53 17.4,1.88 M 1.66,19.99 C 6.04,14.87 10.52,10.07 17.4,1.88 M 1.39,26.39 C 7.64,17.61 15.24,9.3 23.7,0.73 M 1.39,26.39 C 6.13,20.88 10.46,16.21 23.7,0.73 M 2.45,31.28 C 12.71,20.25 22.72,7.67 28.69,1.09 M 2.45,31.28 C 7.61,24.54 14.11,18.05 28.69,1.09 M 4.81,34.65 C 15.38,23.31 25.01,11.18 31.71,3.71 M 4.81,34.65 C 10.35,28.14 15.57,22.08 31.71,3.71 M 7.17,38.03 C 17.02,25.42 27.44,15.18 35.38,5.58 M 7.17,38.03 C 17.43,26.87 26.96,14.47 35.38,5.58 M 10.19,40.66 C 17.4,32.65 24.04,23.24 39.06,7.45 M 10.19,40.66 C 16.46,32.93 22.44,26.5 39.06,7.45 M 13.86,42.53 C 21.08,33.34 29.5,24.6 41.42,10.83 m -27.56,31.7 c 7.76,-8.7 15.5,-17.65 27.56,-31.7 M 18.2,43.64 C 23.93,37.66 29.84,30.68 42.47,15.72 M 18.2,43.64 C 24.08,37.54 29.26,30.56 42.47,15.72 M 22.53,44.76 C 31.39,34.05 39.9,24.3 44.18,19.85 M 22.53,44.76 C 28.16,38.32 33.05,32.49 44.18,19.85 M 26.86,45.87 C 31.25,40.84 35.23,35.33 43.91,26.25 M 26.86,45.87 C 32.24,39.02 38.41,32.93 43.91,26.25"
         stroke="#fa5252"
         stroke-width="0.5"
         fill="none"
         id="path5" />
      <path
         d="m 26.28,0.03 c 4.65,0.6 10.93,4.4 13.98,8.25 3.04,3.85 4.41,10.01 4.29,14.84 -0.13,4.83 -2,10.46 -5.04,14.12 -3.04,3.66 -8.43,7.04 -13.19,7.85 -4.77,0.81 -11.15,-0.46 -15.38,-3 C 6.71,39.54 2.54,34.42 0.95,29.82 -0.65,25.22 -0.35,18.98 1.37,14.48 3.1,9.98 6.89,5.06 11.3,2.8 15.71,0.53 24.98,1.12 27.82,0.89 30.66,0.65 28.5,1.07 28.32,1.4 m -4.84,-1.59 c 4.68,-0.25 10.33,2.73 13.75,5.96 3.43,3.22 6.16,8.64 6.8,13.41 0.65,4.77 -0.51,11.11 -2.94,15.2 -2.44,4.09 -7.16,7.95 -11.64,9.35 C 24.97,45.13 18.54,44.5 14.21,42.77 9.88,41.05 5.62,37.5 3.44,33.38 1.27,29.25 0.43,22.81 1.15,18 1.88,13.19 4.06,7.48 7.8,4.51 11.54,1.54 21.15,0.9 23.59,0.19 26.04,-0.51 22.64,0.01 22.46,0.3"
         stroke="#000000"
         stroke-width="1"
         fill="none"
         id="path6" />
    </g>
    <g
       stroke-linecap="round"
       transform="matrix(0.26458333,0,0,0.26458333,160.86843,83.60586)"
       id="g8">
      <path
         d="m 7.2,6.26 c 0,0 0,0 0,0 m 0,0 c 0,0 0,0 0,0 M 1.03,19.45 C 4.98,16.32 7.59,11.41 15.46,2.84 M 1.03,19.45 C 4.92,15.25 8.48,10.42 15.46,2.84 M 2.08,24.33 C 7.18,18.24 13.8,11.2 22.42,0.94 M 2.08,24.33 C 9.99,15.29 17.95,6.52 22.42,0.94 M 3.13,29.22 C 11.23,20.07 18.03,13.51 26.75,2.05 M 3.13,29.22 C 9.01,23.04 14.25,16.13 26.75,2.05 M 3.53,34.87 C 13.21,23.86 22.03,13.86 31.08,3.17 M 3.53,34.87 C 11.48,26.26 19.54,16.6 31.08,3.17 M 7.2,36.73 C 16.83,27.21 24.35,16.09 35.41,4.28 M 7.2,36.73 C 18.34,24.54 28.81,12.4 35.41,4.28 M 10.22,39.36 C 18.94,29.58 26.93,20.64 37.77,7.66 M 10.22,39.36 C 16.33,32.44 22.7,24.77 37.77,7.66 M 13.24,41.98 C 22.75,30.64 30.69,20.99 40.14,11.04 M 13.24,41.98 C 22.27,31.55 31.7,20.25 40.14,11.04 M 16.91,43.85 C 27.21,32.14 36.24,20.73 42.5,14.42 M 16.91,43.85 C 25.9,33.84 34.25,23.63 42.5,14.42 M 22.56,43.46 C 29.38,35.39 37.75,25.44 44.86,17.8 M 22.56,43.46 C 28.04,37.09 33.39,30.6 44.86,17.8 M 28.2,43.06 C 33.82,36.56 41.02,29.6 43.94,24.95 M 28.2,43.06 c 3.96,-4.4 8.82,-9.16 15.74,-18.11 m -6.16,13.19 c 2.64,-2.97 4.6,-5.36 5.9,-6.79 m -5.9,6.79 c 1.4,-1.6 2.49,-2.76 5.9,-6.79"
         stroke="#12b886"
         stroke-width="0.5"
         fill="none"
         id="path7" />
      <path
         d="m 21.43,-0.02 c 4.54,-0.43 10.89,1.97 14.74,4.88 3.85,2.92 7.26,8.05 8.39,12.63 1.13,4.58 0.66,10.62 -1.61,14.88 -2.27,4.25 -7.44,8.79 -12,10.65 -4.57,1.85 -10.86,1.92 -15.41,0.49 C 10.99,42.08 6.18,38.48 3.65,34.46 1.11,30.44 -0.25,24.07 0.33,19.38 0.91,14.7 3.46,9.6 7.12,6.34 10.77,3.09 19.71,0.83 22.26,-0.13 c 2.55,-0.96 0.16,0.28 0.14,0.7 m -3.12,-0.99 c 4.52,-0.79 10.57,1.77 14.57,4.52 4,2.75 7.74,7.61 9.41,12 1.67,4.38 2.27,9.87 0.62,14.31 -1.65,4.43 -6.13,9.92 -10.52,12.32 -4.39,2.4 -10.94,3.2 -15.81,2.09 C 12.67,43.72 7,39.92 4.1,36.09 1.2,32.27 -0.04,26.68 0.17,21.87 0.38,17.07 2.18,10.79 5.35,7.26 8.52,3.74 16.96,1.79 19.19,0.71 21.41,-0.36 18.7,0.61 18.7,0.8"
         stroke="#000000"
         stroke-width="1"
         fill="none"
         id="path8" />
    </g>
    <g
       stroke-linecap="round"
       transform="matrix(0.26458333,0,0,0.26458333,163.91114,53.972523)"
       id="g10">
      <path
         d="m 7.86,5.51 c 0,0 0,0 0,0 m 0,0 c 0,0 0,0 0,0 M 0.39,20.21 C 3.55,16.88 7.12,12.11 16.13,2.1 M 0.39,20.21 C 5.92,13.65 10.66,7.94 16.13,2.1 M 1.44,25.1 C 8.05,17.2 15.64,7.58 22.43,0.95 M 1.44,25.1 C 9.79,15.49 17.54,6.06 22.43,0.95 M 2.49,29.99 C 11.34,20.5 18.91,10.6 26.76,2.06 M 2.49,29.99 C 10.24,20.83 18.82,10.8 26.76,2.06 M 3.54,34.88 C 10.3,26.95 16.75,18.87 31.09,3.18 M 3.54,34.88 C 14.14,22.68 25.55,10.22 31.09,3.18 M 6.56,37.5 C 13.61,29.71 22.46,21.19 34.77,5.05 M 6.56,37.5 C 17.91,24.54 28.41,12.3 34.77,5.05 M 10.23,39.37 C 16.72,31.91 21.88,26.43 37.79,7.67 M 10.23,39.37 C 19.55,28.25 29.9,16.79 37.79,7.67 M 13.25,41.99 c 9,-10.52 16.8,-18.95 26.9,-30.94 M 13.25,41.99 C 23.15,30.16 33.72,18.4 40.15,11.05 M 16.92,43.86 C 23.3,36.17 29.72,28.95 42.51,14.43 M 16.92,43.86 C 24.78,34.62 31.71,26.65 42.51,14.43 M 21.91,44.22 C 30.69,34.96 37.43,25.13 44.87,17.81 M 21.91,44.22 C 30.7,33.94 39.11,24.61 44.87,17.81 M 27.55,43.83 C 33.47,36.86 40.2,29.05 43.96,24.96 M 27.55,43.83 c 5.44,-5.8 10.83,-13.07 16.41,-18.87 m -6.83,13.95 c 1.58,-1.55 3.15,-3.58 5.91,-6.8 m -5.91,6.8 c 1.17,-1.56 2.43,-2.96 5.91,-6.8"
         stroke="#12b886"
         stroke-width="0.5"
         fill="none"
         id="path9" />
      <path
         d="m 21.45,0.02 c 4.55,-0.45 11.05,2.06 14.87,5 3.82,2.93 7.03,7.89 8.06,12.61 1.04,4.72 0.42,11.33 -1.84,15.69 -2.26,4.37 -7.15,8.81 -11.72,10.52 C 26.25,45.54 19.69,45.15 15.1,43.56 10.51,41.98 5.77,38.33 3.29,34.34 0.81,30.35 -0.51,24.36 0.19,19.62 0.9,14.87 3.81,9.08 7.54,5.89 11.26,2.7 19.89,1.32 22.54,0.46 25.18,-0.4 23.3,0.5 23.41,0.74 m 0.31,-0.47 c 4.38,-0.2 9.91,2.58 13.35,5.71 3.45,3.13 6.48,8.43 7.32,13.07 0.84,4.63 0.14,10.69 -2.26,14.73 -2.4,4.05 -7.46,7.98 -12.16,9.55 -4.7,1.57 -11.43,1.6 -16.06,-0.12 C 9.28,41.48 4.29,37.2 2.17,32.99 0.05,28.77 0.1,22.63 1.17,17.93 2.24,13.22 4.99,7.72 8.57,4.77 12.16,1.82 20.1,0.9 22.67,0.24 c 2.57,-0.66 1.24,0.33 1.3,0.58"
         stroke="#000000"
         stroke-width="1"
         fill="none"
         id="path10" />
    </g>
    <g
       stroke-linecap="round"
       id="g12"
       transform="matrix(0.26458333,0,0,0.26458333,33.074681,51.32669)">
      <g
         transform="translate(513,59)"
         id="g11">
        <path
           d="M -0.4,0.67 C -1.43,10.23 -4.31,48.53 -4.96,58.2 M 1.59,-0.03 C 0.3,9.6 -4.84,49.34 -5.89,59.32"
           stroke="#000000"
           stroke-width="1"
           fill="none"
           id="path11" />
      </g>
    </g>
    <mask
       id="mask12" />
    <g
       stroke-linecap="round"
       id="g14"
       transform="matrix(0.26458333,0,0,0.26458333,33.074681,51.32669)">
      <g
         transform="translate(335.18354,414.35651)"
         id="g13">
        <path
           d="m -0.28,0.52 c -9.08,-15.03 -46.13,-76.33 -55.31,-91.5 M 1.77,-0.25 C -6.85,-15 -44.34,-74.05 -53.45,-89.44"
           stroke="#000000"
           stroke-width="1"
           fill="none"
           id="path12" />
      </g>
    </g>
    <mask
       id="mask14" />
    <g
       stroke-linecap="round"
       id="g16"
       transform="matrix(0.26458333,0,0,0.26458333,33.074681,51.32669)">
      <g
         transform="translate(53.615008,362.23037)"
         id="g15">
        <path
           d="M -1.16,-0.36 C 44.06,11.31 225.4,58.06 270.81,69.86 M 0.43,-1.59 c 45.08,11.82 224.28,60.44 269.33,72.65"
           stroke="#000000"
           stroke-width="1"
           fill="none"
           id="path14" />
      </g>
    </g>
    <mask
       id="mask16" />
    <g
       stroke-linecap="round"
       id="g18"
       transform="matrix(0.26458333,0,0,0.26458333,33.074681,51.32669)">
      <g
         transform="translate(48.674602,318.5142)"
         id="g17">
        <path
           d="M 1.06,-0.78 C 75.49,-46.15 371.63,-226.62 445.8,-271.41"
           stroke="#000000"
           stroke-width="1.5"
           fill="none"
           stroke-dasharray="1.5, 7"
           id="path16" />
      </g>
    </g>
    <mask
       id="mask18" />
    <g
       transform="matrix(0.26458333,0,0,0.26458333,172.03649,72.723834)"
       id="g19">
      <text
         x="0"
         y="0"
         font-family="Virgil, 'Segoe UI Emoji'"
         font-size="20px"
         fill="#000000"
         text-anchor="start"
         style="white-space:pre"
         direction="ltr"
         dominant-baseline="text-before-edge"
         id="text18">1</text>
    </g>
    <g
       transform="matrix(0.26458333,0,0,0.26458333,117.40004,143.36758)"
       id="g20">
      <text
         x="0"
         y="0"
         font-family="Virgil, 'Segoe UI Emoji'"
         font-size="20px"
         fill="#000000"
         text-anchor="start"
         style="white-space:pre"
         direction="ltr"
         dominant-baseline="text-before-edge"
         id="text19">2</text>
    </g>
    <g
       transform="matrix(0.26458333,0,0,0.26458333,84.427658,148.52696)"
       id="g21">
      <text
         x="0"
         y="0"
         font-family="Virgil, 'Segoe UI Emoji'"
         font-size="20px"
         fill="#000000"
         text-anchor="start"
         style="white-space:pre"
         direction="ltr"
         dominant-baseline="text-before-edge"
         id="text20">3</text>
    </g>
    <g
       transform="matrix(0.26458333,0,0,0.26458333,109.43079,87.01133)"
       id="g22">
      <text
         x="0"
         y="0"
         font-family="Virgil, 'Segoe UI Emoji'"
         font-size="20px"
         fill="#000000"
         text-anchor="start"
         style="white-space:pre"
         direction="ltr"
         dominant-baseline="text-before-edge"
         id="text21">4</text>
    </g>
    <text
       xml:space="preserve"
       style="font-size:6.35px;font-family:'Architects Daughter';-inkscape-font-specification:'Architects Daughter';fill:#000000;stroke-width:0.499999"
       x="172.33571"
       y="77.429497"
       id="text1"><tspan
         sodipodi:role="line"
         id="tspan1"
         style="fill:#000000;stroke-width:0.5"
         x="172.33571"
         y="77.429497">1</tspan></text>
    <text
       xml:space="preserve"
       style="font-size:6.35px;font-family:'Architects Daughter';-inkscape-font-specification:'Architects Daughter';fill:#000000;stroke-width:0.499999"
       x="102.12903"
       y="93.035583"
       id="text1-3"><tspan
         sodipodi:role="line"
         id="tspan1-5"
         style="fill:#000000;stroke-width:0.5"
         x="102.12903"
         y="93.035583">4</tspan></text>
    <text
       xml:space="preserve"
       style="font-size:6.35px;font-family:'Architects Daughter';-inkscape-font-specification:'Architects Daughter';fill:#000000;stroke-width:0.499999"
       x="118.59174"
       y="146.52081"
       id="text1-3-1"><tspan
         sodipodi:role="line"
         id="tspan1-5-2"
         style="fill:#000000;stroke-width:0.5"
         x="118.59174"
         y="146.52081">2</tspan></text>
    <text
       xml:space="preserve"
       style="font-size:6.35px;font-family:'Architects Daughter';-inkscape-font-specification:'Architects Daughter';fill:#000000;stroke-width:0.499999"
       x="81.112724"
       y="150.34485"
       id="text1-3-1-3"><tspan
         sodipodi:role="line"
         id="tspan1-5-2-6"
         style="fill:#000000;stroke-width:0.5"
         x="81.112724"
         y="150.34485">3</tspan></text>
  </g>
</svg>
